#N canvas 0 0 1266 618 10;
#N canvas -8 -8 1282 634 interface 1;
#X obj 221 -2423 import mrpeach;
#X obj 153 -2344 udpreceive 9001;
#X msg 152 -2390 connect localhost 9001;
#X obj 152 -2311 unpackOSC;
#X obj 183 -2262 spigot;
#X obj 284 -2300 tgl 38 0 empty empty empty 17 7 0 10 #fcfcfc #000000
#000000 1 1;
#X floatatom 966 -2314 5 0 0 0 - - -, f 5;
#X floatatom 1067 -2323 5 0 0 0 - - -, f 5;
#X floatatom 1172 -2323 5 0 0 0 - - -, f 5;
#X obj 1172 -2348 routeOSC /or/z;
#X obj 1067 -2348 routeOSC /or/y;
#X obj 972 -2346 routeOSC /or/x;
#X obj 1172 -2294 average;
#X floatatom 1172 -2269 5 0 0 0 - - -, f 5;
#X obj 1067 -2293 average;
#X floatatom 1065 -2261 5 0 0 0 - - -, f 5;
#X obj 966 -2293 average;
#X floatatom 966 -2268 5 0 0 0 - - -, f 5;
#X text 603 -2398 Sensibilité;
#X obj 1188 -2074 vsl 15 128 -180 180 0 0 empty empty empty 0 -9 0
10 #fcfcfc #000000 #000000 0 1;
#X obj 1067 -2072 vsl 15 128 -180 180 0 0 empty empty empty 0 -9 0
10 #fcfcfc #000000 #000000 0 1;
#X obj 976 -2072 vsl 15 128 -180 180 0 0 empty empty empty 0 -9 0 10
#fcfcfc #000000 #000000 0 1;
#X text 1066 -2412 ORIENTATION :;
#X obj 181 -2227 send data;
#X obj 1067 -2380 receive data;
#X text 248 -2449 TRAITEMENT DU SIGNAL OSC;
#X obj 2812 140;
#X obj 616 -2302 send sensi;
#X text 1644 -2425 LINEAR ACCELERATION;
#X obj 1636 -2385 receive data;
#X obj 1554 -2341 routeOSC /laccel/x;
#X obj 1679 -2342 routeOSC /laccel/y;
#X obj 1797 -2343 routeOSC /laccel/z;
#X floatatom 1554 -2316 5 0 0 0 - - -, f 5;
#X floatatom 1679 -2317 5 0 0 0 - - -, f 5;
#X floatatom 1797 -2318 5 0 0 0 - - -, f 5;
#X obj 1554 -2243 vsl 15 128 -2 2 0 0 empty empty empty 0 -9 0 10 #fcfcfc
#000000 #000000 0 1;
#X obj 1679 -2244 vsl 15 128 -2 2 0 0 empty empty empty 0 -9 0 10 #fcfcfc
#000000 #000000 0 1;
#X obj 1797 -2245 vsl 15 128 -2 2 0 0 empty empty empty 0 -9 0 10 #fcfcfc
#000000 #000000 0 1;
#X obj 570 -877 dac~;
#X obj 1711 -1912 bng 77 250 10 0 empty empty empty 17 7 0 10 #fcfcfc
#000000 #000000;
#X obj 1138 -2168 send orz;
#X obj 1610 -1770 spigot;
#X floatatom 1565 -1703 5 0 0 0 - - -, f 5;
#X floatatom 1639 -1704 5 0 0 0 - - -, f 5;
#X floatatom 1711 -1802 5 0 0 0 - - -, f 5;
#X obj 1613 -1731 unpack f f f;
#X floatatom 1708 -1704 5 0 0 0 - - -, f 5;
#X obj 616 -2377 loadbang;
#X obj 1550 -1802 pack f f f;
#X obj 1623 -1846 receive orz;
#X obj 1545 -1846 receive ory;
#X obj 1455 -1843 receive orx;
#X obj 971 -2237 send orx;
#X obj 1085 -2227 send ory;
#X floatatom 1183 -2209 5 0 0 0 - - -, f 5;
#X obj 1527 -1553 send calorx;
#X obj 1627 -1546 send calory;
#X obj 1725 -1549 send calorz;
#X obj 952 -2166 -;
#X obj 1061 -2146 -;
#X obj 966 -2215 receive calorx;
#X obj 1087 -2200 receive calory;
#X floatatom 1061 -2121 5 0 0 0 - - -, f 5;
#X floatatom 952 -2141 5 0 0 0 - - -, f 5;
#X obj 1197 -2166 -;
#X obj 1227 -2221 receive calorz;
#X floatatom 1190 -2130 5 0 0 0 - - -, f 5;
#X msg 1717 -1757 0;
#X obj 1565 -1679 moses 0;
#X obj 1639 -1680 moses 0;
#X obj 1708 -1680 moses 0;
#X obj 1565 -1651 * -1;
#X obj 1634 -1638 * -1;
#X obj 1710 -1635 * -1;
#X floatatom 1227 -2196 5 0 0 0 - - -, f 5;
#X floatatom 1087 -2175 5 0 0 0 - - -, f 5;
#X floatatom 966 -2190 5 0 0 0 - - -, f 5;
#X obj 1649 -1911 loadbang;
#X obj 1797 -2078 send accelz;
#X text 1410 -800 SAMPLE TRIGGERRING FROM ACCELERATION :;
#X obj 147 -2425 loadbang;
#X obj 726 -1160 receive~ kick;
#X obj 931 -1175 receive~ snare;
#X obj 1012 -1055 *~ 1;
#X obj 805 -1097 *~;
#X obj 1006 -1113 *~;
#X obj 1679 -2103 send accely;
#X obj 1554 -2102 send accelx;
#X obj 1257 -1107 *~;
#X obj 1182 -1174 receive~ openh;
#X text 1659 -1951 calibration (orientation) :;
#X obj 989 -1242 loadbang;
#X msg 835 -1157 1;
#X obj 1181 -2235 * 2;
#X msg 616 -2353 10;
#X floatatom 1556 -1583 5 0 0 0 - - -, f 5;
#X floatatom 1643 -1577 5 0 0 0 - - -, f 5;
#X floatatom 1735 -1584 5 0 0 0 - - -, f 5;
#X obj 70 -630 send onoff;
#X obj 284 -2329 receive onoff;
#X obj 1565 -1950 receive onoff;
#X obj 170 -690 tgl 54 0 empty empty ON/OFF 0 -12 0 15 #ffffff #0000ff
#0000a0 1 1;
#X obj 976 -1931 send or_x;
#X obj 1067 -1931 send or_y;
#X obj 1188 -1933 send or_z;
#X obj 166 -416 vsl 20 79 0 180 0 0 empty or_y modulation -15 90 0
8 #ffffff #0080ff #0000a0 0 1;
#X floatatom 160 -520 5 0 0 0 - - -, f 5;
#X obj 160 -540 hsl 70 15 1 30 0 0 sens sensi Smoothing 0 -10 0 10
#ffffff #ff8040 #0000a0 2141 1;
#X obj 1808 -1942 receive calib;
#X obj 240 -600 bng 17 250 50 0 empty empty Calibration -80 6 0 10
#fcfcfc #0000ff #0000a0;
#X obj 70 -590 send calib;
#X obj 760 -680 bng 50 250 10 0 play1 disp1 Sound\ 1 0 -10 0 12 #fcfcfc
#0080ff #0000a0;
#X obj 761 -540 bng 50 250 10 0 play2 disp2 Sound\ 2 0 -10 0 12 #fcfcfc
#0080ff #0000a0;
#X obj 760 -395 bng 50 250 10 0 play3 disp3 Sound\ 3 0 -10 0 12 #fcfcfc
#0080ff #0000a0;
#X obj 800 -630 bng 15 250 50 0 empty empty file\ explorer -65 8 0
8 #fcfcfc #0000ff #0000a0;
#X obj 801 -490 bng 15 250 50 0 empty empty file\ explorer -65 8 0
8 #fcfcfc #0000ff #0000a0;
#X obj 800 -345 bng 15 250 50 0 empty empty file\ explorer -65 8 0
8 #fcfcfc #0000ff #0000a0;
#X obj 828 -600 send openS1;
#X obj 830 -469 send openS2;
#X obj 830 -323 send openS3;
#X obj 1240 -693 receive openS1;
#X obj 1501 -693 receive openS2;
#X obj 1777 -695 receive openS3;
#X obj 1240 -588 soundfiler;
#X obj 1240 -641 pack s \$0;
#X obj 1240 -667 openpanel;
#X obj 1501 -586 soundfiler;
#X obj 1501 -639 pack s \$0;
#X obj 1501 -665 openpanel;
#X obj 1777 -589 soundfiler;
#X obj 1777 -642 pack s \$0;
#X obj 1777 -668 openpanel;
#X msg 1240 -612 read -resize \$1 \$2-sample1;
#X msg 1501 -610 read -resize \$1 \$2-sample2;
#X msg 1777 -615 read -resize \$1 \$2-sample3;
#X obj 1242 -536 receive accelz;
#X obj 1492 -546 receive accelx;
#X obj 1782 -546 receive accely;
#X obj 1243 -203 send~ kick;
#X obj 1493 -208 send~ snare;
#X obj 1782 -217 send~ openh;
#X obj 1429 -751 loadbang;
#X obj 1243 -228 tabplay~ \$0-sample1;
#X obj 1493 -233 tabplay~ \$0-sample2;
#N canvas 0 0 450 300 (subpatch) 0;
#X array \$0-sample1 5302 float 4 black #0080ff;
#X coords 0 1 5301 -1 88 17 1;
#X restore 660 -690 graph;
#N canvas 0 0 450 300 (subpatch) 0;
#X array \$0-sample2 3957 float 4 black #0080ff;
#X coords 0 1 3956 -1 85 17 1;
#X restore 661 -550 graph;
#N canvas 0 0 450 300 (subpatch) 0;
#X array \$0-sample3 7239 float 4 black #0080ff;
#X coords 0 1 7238 -1 83 17 1;
#X restore 660 -405 graph;
#X obj 1782 -242 tabplay~ \$0-sample3;
#X text 634 -1284 AUDIO;
#X obj 165 -1666 mtof;
#X floatatom 165 -1636 5 0 0 0 - - -, f 5;
#X obj 272 -2003 notein;
#X floatatom 174 -1815 5 0 0 0 - - -, f 5;
#X text 244 -2025 MIDI SYNTHESIZER;
#X obj 175 -1545 osc~;
#X obj 805 -1698 osc~;
#X obj 174 -1574 +~;
#X floatatom 840 -1561 5 0 0 0 - - -, f 5;
#X obj 775 -1616 *~;
#X obj 799 -1868 vsl 30 128 1 180 0 0 empty empty empty 0 -9 0 10 #fcfcfc
#000000 #000000 0 1;
#X text 45 -1636 main frequency;
#X text 833 -1726 modulating frequency;
#X text 929 -1259 sample launcher audio mixing;
#X text 238 -1253 synth audio mixing;
#X obj 32 -1107 *~;
#X obj 798 -1906 receive or_y;
#X floatatom 799 -1727 5 0 0 0 - - -, f 5;
#X obj 845 -1615 loadbang;
#X msg 837 -1581 10;
#X obj 850 -1538 send modAmp;
#X obj 796 -1645 receive ampMod;
#X obj 231 -416 vsl 20 79 0 100 0 0 ampMod modAmp depth -2 90 0 8 #ffffff
#0080ff #0000a0 780 1;
#X floatatom 231 -436 3 0 0 0 - - -, f 3;
#X obj 176 -1691 send midi;
#X obj 290 -680 hradio 20 0 0 12 empty midi C\ C#\ D\ D#\ E\ F\ F#\ G\ G#\ A\ A#\ B
2 26 0 14 #fcfcfc #0080ff #000080 0;
#X floatatom 174 -1766 5 0 0 0 - - -, f 5;
#X obj 174 -1791 - 60;
#X obj 174 -1742 mod 12;
#X floatatom 174 -1717 5 0 0 0 - - -, f 5;
#X obj 32 -1133 receive~ fmSynth1;
#X obj 135 -1476 send~ fmSynth1;
#X floatatom 312 -1815 5 0 0 0 - - -, f 5;
#X obj 314 -1691 send midi;
#X floatatom 312 -1766 5 0 0 0 - - -, f 5;
#X obj 312 -1791 - 60;
#X obj 312 -1742 mod 12;
#X floatatom 312 -1717 5 0 0 0 - - -, f 5;
#X obj 310 -1655 mtof;
#X floatatom 310 -1630 5 0 0 0 - - -, f 5;
#X obj 305 -1476 send~ fmSynth2;
#X obj 188 -1106 *~;
#X obj 188 -1132 receive~ fmSynth2;
#X floatatom 449 -1809 5 0 0 0 - - -, f 5;
#X obj 451 -1685 send midi;
#X floatatom 449 -1760 5 0 0 0 - - -, f 5;
#X obj 449 -1785 - 60;
#X obj 449 -1736 mod 12;
#X floatatom 449 -1711 5 0 0 0 - - -, f 5;
#X obj 447 -1649 mtof;
#X floatatom 447 -1624 5 0 0 0 - - -, f 5;
#X obj 455 -1476 send~ fmSynth3;
#X obj 333 -1111 *~;
#X obj 334 -1137 receive~ fmSynth3;
#X msg 394 -2032 clear;
#X obj 190 -1873 unpack f f;
#X obj 304 -1876 unpack f f;
#X obj 426 -1876 unpack f f;
#X obj 233 -1833 send vel1;
#X obj 355 -1837 send vel2;
#X obj 494 -1837 send vel3;
#X obj 41 -1225 receive vel1;
#X obj 563 -933 /~ 4;
#X floatatom 626 -1808 5 0 0 0 - - -, f 5;
#X obj 628 -1684 send midi;
#X floatatom 626 -1759 5 0 0 0 - - -, f 5;
#X obj 626 -1784 - 60;
#X obj 626 -1735 mod 12;
#X floatatom 626 -1710 5 0 0 0 - - -, f 5;
#X obj 624 -1648 mtof;
#X floatatom 624 -1623 5 0 0 0 - - -, f 5;
#X obj 603 -1875 unpack f f;
#X obj 671 -1836 send vel4;
#X obj 625 -1476 send~ fmSynth4;
#X obj 272 -1928 route 1 2 3 4;
#X obj 272 -1953 pack f f f f;
#X obj 272 -1978 poly 4 1;
#X obj 466 -1111 *~;
#X obj 468 -1137 receive~ fmSynth4;
#X obj 41 -1200 t f b;
#X obj 190 -1200 t f b;
#X obj 338 -1202 t f b;
#X obj 470 -1199 t f b;
#X obj 190 -1225 receive vel2;
#X obj 470 -1224 receive vel4;
#X obj 338 -1227 receive vel3;
#X floatatom 526 -286 4 0 0 0 - - -, f 4;
#X floatatom 561 -281 5 0 0 0 - - -, f 5;
#X floatatom 596 -280 5 0 0 0 - - -, f 5;
#X floatatom 633 -281 5 0 0 0 - - -, f 5;
#X obj 507 -238 send attack;
#X obj 541 -260 send decay;
#X obj 837 -283 loadbang;
#X obj 602 -236 send sustain;
#X obj 629 -257 send release;
#X obj 550 -450 vsl 15 128 1 1000 0 0 empty initA A 4 140 0 10 #fcfcfc
#0080ff #000000 13 1;
#X obj 570 -450 vsl 15 128 0 5000 0 0 empty initD D 4 140 0 10 #fcfcfc
#0080ff #000000 5 1;
#X obj 590 -450 vsl 15 128 0 5000 0 0 empty initS S 4 140 0 10 #fcfcfc
#0080ff #000000 12700 1;
#X obj 610 -450 vsl 15 128 0 5000 0 0 empty initR R 4 140 0 10 #fcfcfc
#0080ff #000000 2540 1;
#X msg 842 -229 2, f 4;
#X msg 785 -230 2;
#X floatatom 166 -436 3 0 0 0 - - -, f 3;
#X text 640 -730 |;
#X text 640 -720 |;
#X text 640 -710 |;
#X text 640 -700 |;
#X text 640 -690 |;
#X text 640 -680 |;
#X text 640 -670 |;
#X text 640 -660 |;
#X text 640 -650 |;
#X text 640 -640 |;
#X text 640 -630 |;
#X text 640 -620 |;
#X text 640 -610 |;
#X text 640 -600 |;
#X text 640 -590 |;
#X text 640 -640 |;
#X text 640 -630 |;
#X text 640 -620 |;
#X text 640 -610 |;
#X text 640 -600 |;
#X text 640 -590 |;
#X text 640 -580 |;
#X text 640 -570 |;
#X text 640 -560 |;
#X text 640 -550 |;
#X text 640 -540 |;
#X text 640 -530 |;
#X text 640 -520 |;
#X text 640 -510 |;
#X text 640 -500 |;
#X text 640 -490 |;
#X text 665 -725 SOUND FROM ACCELERATION;
#X obj 105 -1566 osc~;
#X obj 345 -1546 osc~;
#X obj 344 -1575 +~;
#X obj 494 -1545 osc~;
#X obj 493 -1574 +~;
#X obj 669 -1542 osc~;
#X obj 668 -1571 +~;
#X obj 135 -1506 *~ 0.5;
#X obj 305 -1507 *~ 0.5;
#X obj 454 -1506 *~ 0.5;
#X obj 629 -1503 *~ 0.5;
#X text 45 -1816 midi code;
#X obj 275 -1561 osc~;
#X obj 425 -1561 osc~;
#X obj 605 -1561 osc~;
#X obj 1242 -486 change -1;
#X obj 1242 -461 select -1;
#X obj 1492 -491 change -1;
#X obj 1492 -466 select -1;
#X obj 1783 -494 change -1;
#X obj 1783 -469 select -1;
#X obj 710 -380 tgl 29 0 empty empty ON/OFF -35 13 0 9 #fcfcfc #0080ff
#0000a0 0 1;
#X obj 711 -525 tgl 29 0 empty empty ON/OFF -35 13 0 9 #fcfcfc #0080ff
#0000a0 0 1;
#X obj 710 -665 tgl 29 0 empty empty ON/OFF -35 13 0 9 #fcfcfc #0080ff
#0000a0 0 1;
#X obj 826 -620 send activate1;
#X obj 1312 -456 receive activate1;
#X obj 829 -490 send activate2;
#X obj 828 -344 send activate3;
#X obj 1562 -466 receive activate2;
#X obj 1862 -466 receive activate3;
#X obj 1784 -407 spigot;
#X obj 1496 -412 spigot;
#X obj 1247 -402 spigot;
#X msg 903 -231 5000;
#X msg 962 -231 1000;
#X obj 1242 -511 div 4;
#X obj 1492 -516 div 4;
#X obj 1783 -519 div 4;
#X msg 1292 -1136 0.3;
#X msg 1037 -1143 0.2;
#X obj 327 -39 line;
#X msg 362 -66 5;
#X obj 327 -448 bng 39 5000 50 0 empty empty Record\ envelope -50 50
0 10 #ffffff #ff0000 #0000a0;
#X msg 321 -121 0;
#X obj 213 -236 receive or_y;
#N canvas 0 0 450 300 (subpatch) 0;
#X array envelope 51 float 16 black #0000ff;
#X coords 0 1 50 0 160 128 1;
#X restore 372 -448 graph;
#X msg 351 -121 50 5000;
#X obj 362 -86 loadbang;
#X obj 213 -6 tabwrite envelope;
#X obj 213 -186 / 90;
#X obj 366 -295 send envelopeonoff;
#X obj 105 -1596 * 4;
#X obj 105 -1541 /~ 32;
#X obj 275 -1536 /~ 32;
#X obj 425 -1536 /~ 32;
#X obj 605 -1536 /~ 32;
#X obj 275 -1591 * 4;
#X obj 425 -1591 * 4;
#X obj 605 -1591 * 4;
#X obj 213 -211 int;
#X obj 952 -2117 int;
#X obj 1061 -2097 int;
#X obj 1190 -2100 int;
#X obj 213 -59 abs;
#X text 260 -730 |;
#X text 260 -720 |;
#X text 260 -710 |;
#X text 260 -700 |;
#X text 260 -690 |;
#X text 260 -680 |;
#X text 260 -670 |;
#X text 260 -660 |;
#X text 260 -650 |;
#X text 260 -640 |;
#X text 260 -630 |;
#X text 260 -620 |;
#X text 260 -610 |;
#X text 260 -600 |;
#X text 260 -590 |;
#X text 260 -580 |;
#X text 260 -630 |;
#X text 260 -620 |;
#X text 260 -610 |;
#X text 260 -600 |;
#X text 260 -590 |;
#X text 260 -580 |;
#X text 260 -570 |;
#X text 260 -560 |;
#X text 260 -550 |;
#X text 260 -540 |;
#X text 260 -530 |;
#X text 640 -480 |;
#X text 640 -470 |;
#X text 640 -460 |;
#X text 640 -450 |;
#X text 640 -440 |;
#X text 640 -480 |;
#X text 640 -470 |;
#X text 640 -460 |;
#X text 640 -450 |;
#X text 640 -440 |;
#X text 640 -430 |;
#X text 640 -420 |;
#X text 640 -410 |;
#X text 640 -400 |;
#X text 640 -390 |;
#X text 640 -380 |;
#X text 640 -370 |;
#X text 640 -360 |;
#X text 640 -350 |;
#X text 640 -340 |;
#X text 640 -340 |;
#X text 640 -330 |;
#X text 640 -320 |;
#X text 640 -310 |;
#X text 260 -730 |;
#X text 260 -521 |;
#X obj 213 -161 * 100;
#X obj 213 -136 int;
#X obj 213 -111 / 100;
#X obj 560 -660 vu 30 160 empty empty -1 -8 0 10 #ffffff #0000a0 1
0;
#X obj 537 -761 - 100;
#X obj 337 -378 vradio 29 0 0 2 empty empty empty 0 -8 0 10 #fcfcfc
#0080ff #000000 0;
#X text 267 -343 Orientation;
#X text 297 -373 Normal;
#X text 151 -474 FM Synth parameters:;
#X text 440 -725 INTERFACE;
#X obj 823 -1181 receive kickv;
#X obj 1029 -1172 receive snarev;
#X obj 1283 -1161 receive openhv;
#X obj 661 -470 hsl 128 15 0 1 0 0 snarev empty volume 0 20 0 10 #fcfcfc
#0080ff #0000a0 2540 1;
#X obj 660 -610 hsl 128 15 0 1 0 0 kickv empty volume 0 20 0 10 #fcfcfc
#0080ff #0000a0 12700 1;
#X obj 660 -330 hsl 128 15 0 1 0 0 openhv empty volume 0 20 0 10 #fcfcfc
#0080ff #0000a0 3810 1;
#X obj 213 -86 moses 1;
#N canvas 0 0 450 300 (subpatch) 0;
#X array audio 1000 float 0 black #0080ff;
#X coords 0 1 999 -1 239 123 1;
#X restore 290 -620 graph;
#X obj 325 -801 tabwrite~ audio;
#X obj 312 -867 tgl 25 0 empty empty empty 17 7 0 10 #fcfcfc #000000
#000000 1 1;
#X obj 315 -839 metro 50;
#X text 260 -514 |;
#X text 260 -507 |;
#X text 260 -499 |;
#X text 260 -510 |;
#X text 260 -500 |;
#X text 260 -490 |;
#X text 147 -489 __________________________________________________________________________________
, f 85;
#X text 646 -580 ____________________________;
#X text 646 -441 ____________________________;
#X text 275 -479 |;
#X text 275 -469 |;
#X text 146 -469 ______________________;
#X obj 288 -917 receive onoff;
#X obj 51 -1165 patchs/adsr;
#X obj 200 -1165 patchs/adsr;
#X obj 348 -1167 patchs/adsr;
#X obj 480 -1164 patchs/adsr;
#X obj 1722 -1829 patchs/b_to_f;
#X msg 1136 -664 sounds/kick.wav;
#X msg 1393 -662 sounds/snare.wav;
#X msg 1666 -664 sounds/openh.wav;
#X obj 1242 -260 receive play1;
#X obj 1246 -374 send disp1;
#X obj 1495 -383 send disp2;
#X obj 1498 -259 receive play2;
#X obj 1782 -267 receive play3;
#X text 882 -1561 modulating depth;
#X obj 1298 -2323 receive sens;
#X obj 746 -202 send initA;
#X obj 816 -199 send initD;
#X obj 885 -199 send initS;
#X obj 954 -199 send initR;
#X obj 1500 -319 patchs/delayer;
#X obj 1242 -436 bng 15 250 50 0 empty empty empty 17 7 0 10 #fcfcfc
#000000 #000000;
#X obj 1492 -441 bng 15 250 50 0 empty empty empty 17 7 0 10 #fcfcfc
#000000 #000000;
#X obj 1783 -444 bng 15 250 50 0 empty empty empty 17 7 0 10 #fcfcfc
#000000 #000000;
#X obj 1308 -433 tgl 15 0 empty empty empty 17 7 0 10 #fcfcfc #000000
#000000 0 1;
#X obj 1559 -440 tgl 15 0 empty empty empty 17 7 0 10 #fcfcfc #000000
#000000 0 1;
#X obj 1853 -436 tgl 15 0 empty empty empty 17 7 0 10 #fcfcfc #000000
#000000 0 1;
#X obj 1784 -375 send disp3;
#X text 2035 -649 Loading the sounds, f 10;
#X text 2034 -489 Processing acceleration datas, f 13;
#X text 2037 -238 Playing the sound, f 10;
#X text 1254 -152 sound number 1;
#X text 1516 -155 sound number 2;
#X text 1792 -150 sound number 3;
#X text 333 -1441 4 oscillators for polyphony;
#X text 808 -2353 receiving osc messages, f 12;
#X text 808 -2130 calibrating orientation datas, f 17;
#X floatatom 213 -34 5 0 0 0 - - -, f 5;
#X text 210 21 calibration of the orientation data for it to fit the
envelope graph, f 16;
#X text 48 -704 master on/off;
#X text 71 -538 data smoothing, f 9;
#X obj 537 -786 env~ 128;
#X obj 338 -222 t b b;
#X text 570 -1166 envelope;
#X text 614 -889 sound output, f 9;
#X connect 1 0 3 0;
#X connect 3 0 4 0;
#X connect 4 0 23 0;
#X connect 5 0 4 1;
#X connect 6 0 16 0;
#X connect 7 0 14 0;
#X connect 8 0 12 0;
#X connect 9 0 8 0;
#X connect 10 0 7 0;
#X connect 11 0 6 0;
#X connect 12 0 13 0;
#X connect 13 0 94 0;
#X connect 14 0 15 0;
#X connect 15 0 60 0;
#X connect 15 0 54 0;
#X connect 16 0 17 0;
#X connect 17 0 59 0;
#X connect 17 0 53 0;
#X connect 19 0 105 0;
#X connect 20 0 104 0;
#X connect 21 0 103 0;
#X connect 24 0 11 0;
#X connect 24 0 10 0;
#X connect 24 0 9 0;
#X connect 29 0 30 0;
#X connect 29 0 31 0;
#X connect 29 0 32 0;
#X connect 30 0 33 0;
#X connect 31 0 34 0;
#X connect 32 0 35 0;
#X connect 33 0 36 0;
#X connect 34 0 37 0;
#X connect 35 0 38 0;
#X connect 36 0 88 0;
#X connect 37 0 87 0;
#X connect 38 0 79 0;
#X connect 40 0 68 0;
#X connect 40 0 439 0;
#X connect 42 0 46 0;
#X connect 43 0 69 0;
#X connect 44 0 70 0;
#X connect 45 0 42 1;
#X connect 46 0 43 0;
#X connect 46 1 44 0;
#X connect 46 2 47 0;
#X connect 47 0 71 0;
#X connect 48 0 95 0;
#X connect 49 0 42 0;
#X connect 50 0 49 2;
#X connect 51 0 49 1;
#X connect 52 0 49 0;
#X connect 55 0 65 0;
#X connect 55 0 41 0;
#X connect 59 0 64 0;
#X connect 60 0 63 0;
#X connect 61 0 77 0;
#X connect 62 0 76 0;
#X connect 63 0 345 0;
#X connect 64 0 344 0;
#X connect 65 0 67 0;
#X connect 66 0 75 0;
#X connect 67 0 346 0;
#X connect 68 0 47 0;
#X connect 68 0 44 0;
#X connect 68 0 43 0;
#X connect 69 0 72 0;
#X connect 69 1 96 0;
#X connect 70 0 73 0;
#X connect 70 1 97 0;
#X connect 71 0 74 0;
#X connect 71 1 98 0;
#X connect 72 0 96 0;
#X connect 73 0 97 0;
#X connect 74 0 98 0;
#X connect 75 0 65 1;
#X connect 76 0 60 1;
#X connect 77 0 59 1;
#X connect 78 0 40 0;
#X connect 81 0 2 0;
#X connect 82 0 85 0;
#X connect 83 0 86 0;
#X connect 84 0 212 0;
#X connect 85 0 84 0;
#X connect 86 0 84 0;
#X connect 89 0 84 0;
#X connect 90 0 89 0;
#X connect 92 0 93 0;
#X connect 92 0 323 0;
#X connect 92 0 322 0;
#X connect 93 0 85 1;
#X connect 93 0 415 0;
#X connect 94 0 55 0;
#X connect 95 0 27 0;
#X connect 96 0 56 0;
#X connect 97 0 57 0;
#X connect 98 0 58 0;
#X connect 100 0 5 0;
#X connect 101 0 40 0;
#X connect 102 0 99 0;
#X connect 106 0 251 0;
#X connect 108 0 107 0;
#X connect 109 0 40 0;
#X connect 110 0 111 0;
#X connect 115 0 118 0;
#X connect 116 0 119 0;
#X connect 117 0 120 0;
#X connect 121 0 126 0;
#X connect 122 0 129 0;
#X connect 123 0 132 0;
#X connect 125 0 133 0;
#X connect 126 0 125 0;
#X connect 128 0 134 0;
#X connect 129 0 128 0;
#X connect 131 0 135 0;
#X connect 132 0 131 0;
#X connect 133 0 124 0;
#X connect 134 0 127 0;
#X connect 135 0 130 0;
#X connect 136 0 319 0;
#X connect 137 0 320 0;
#X connect 138 0 321 0;
#X connect 142 0 440 0;
#X connect 142 0 441 0;
#X connect 142 0 442 0;
#X connect 143 0 139 0;
#X connect 144 0 140 0;
#X connect 148 0 141 0;
#X connect 150 0 151 0;
#X connect 151 0 157 0;
#X connect 151 0 335 0;
#X connect 152 0 226 0;
#X connect 152 1 226 1;
#X connect 153 0 177 0;
#X connect 153 0 150 0;
#X connect 155 0 291 0;
#X connect 156 0 159 0;
#X connect 157 0 155 0;
#X connect 158 0 170 0;
#X connect 159 0 157 1;
#X connect 159 0 286 1;
#X connect 159 0 288 1;
#X connect 159 0 290 1;
#X connect 160 0 167 0;
#X connect 165 0 212 0;
#X connect 166 0 160 0;
#X connect 167 0 156 0;
#X connect 168 0 169 0;
#X connect 169 0 158 0;
#X connect 171 0 159 1;
#X connect 172 0 173 0;
#X connect 176 0 178 0;
#X connect 177 0 176 0;
#X connect 178 0 179 0;
#X connect 179 0 174 0;
#X connect 180 0 165 0;
#X connect 182 0 185 0;
#X connect 182 0 188 0;
#X connect 184 0 186 0;
#X connect 185 0 184 0;
#X connect 186 0 187 0;
#X connect 187 0 183 0;
#X connect 188 0 189 0;
#X connect 189 0 286 0;
#X connect 189 0 340 0;
#X connect 191 0 212 0;
#X connect 192 0 191 0;
#X connect 193 0 196 0;
#X connect 193 0 199 0;
#X connect 195 0 197 0;
#X connect 196 0 195 0;
#X connect 197 0 198 0;
#X connect 198 0 194 0;
#X connect 199 0 200 0;
#X connect 200 0 288 0;
#X connect 200 0 341 0;
#X connect 202 0 212 0;
#X connect 203 0 202 0;
#X connect 204 0 226 0;
#X connect 205 0 153 0;
#X connect 205 1 208 0;
#X connect 206 0 182 0;
#X connect 206 1 209 0;
#X connect 207 0 193 0;
#X connect 207 1 210 0;
#X connect 211 0 229 0;
#X connect 212 0 39 0;
#X connect 212 0 39 1;
#X connect 212 0 419 0;
#X connect 212 0 475 0;
#X connect 213 0 216 0;
#X connect 213 0 219 0;
#X connect 215 0 217 0;
#X connect 216 0 215 0;
#X connect 217 0 218 0;
#X connect 218 0 214 0;
#X connect 219 0 220 0;
#X connect 220 0 290 0;
#X connect 220 0 342 0;
#X connect 221 0 213 0;
#X connect 221 1 222 0;
#X connect 224 0 205 0;
#X connect 224 1 206 0;
#X connect 224 2 207 0;
#X connect 224 3 221 0;
#X connect 225 0 224 0;
#X connect 226 0 225 0;
#X connect 226 1 225 1;
#X connect 226 2 225 2;
#X connect 227 0 212 0;
#X connect 228 0 227 0;
#X connect 229 0 435 0;
#X connect 229 1 435 1;
#X connect 230 0 436 0;
#X connect 230 1 436 1;
#X connect 231 0 437 0;
#X connect 231 1 437 1;
#X connect 232 0 438 0;
#X connect 232 1 438 1;
#X connect 233 0 230 0;
#X connect 234 0 232 0;
#X connect 235 0 231 0;
#X connect 236 0 240 0;
#X connect 237 0 241 0;
#X connect 238 0 243 0;
#X connect 239 0 244 0;
#X connect 242 0 250 0;
#X connect 242 0 249 0;
#X connect 242 0 318 0;
#X connect 242 0 317 0;
#X connect 245 0 236 0;
#X connect 246 0 237 0;
#X connect 247 0 238 0;
#X connect 248 0 239 0;
#X connect 249 0 451 0;
#X connect 250 0 450 0;
#X connect 284 0 336 0;
#X connect 285 0 292 0;
#X connect 286 0 285 0;
#X connect 287 0 293 0;
#X connect 288 0 287 0;
#X connect 289 0 294 0;
#X connect 290 0 289 0;
#X connect 291 0 181 0;
#X connect 292 0 190 0;
#X connect 293 0 201 0;
#X connect 294 0 223 0;
#X connect 296 0 337 0;
#X connect 297 0 338 0;
#X connect 298 0 339 0;
#X connect 299 0 300 0;
#X connect 300 0 455 0;
#X connect 301 0 302 0;
#X connect 302 0 456 0;
#X connect 303 0 304 0;
#X connect 304 0 457 0;
#X connect 305 0 311 0;
#X connect 306 0 310 0;
#X connect 307 0 308 0;
#X connect 309 0 458 0;
#X connect 312 0 459 0;
#X connect 313 0 460 0;
#X connect 314 0 454 0;
#X connect 314 0 461 0;
#X connect 315 0 445 0;
#X connect 315 0 454 0;
#X connect 316 0 444 0;
#X connect 316 0 454 0;
#X connect 317 0 452 0;
#X connect 318 0 453 0;
#X connect 319 0 299 0;
#X connect 320 0 301 0;
#X connect 321 0 303 0;
#X connect 322 0 89 1;
#X connect 322 0 416 0;
#X connect 323 0 86 1;
#X connect 323 0 414 0;
#X connect 324 0 332 1;
#X connect 325 0 324 2;
#X connect 326 0 476 0;
#X connect 327 0 324 0;
#X connect 328 0 343 0;
#X connect 330 0 324 0;
#X connect 331 0 325 0;
#X connect 333 0 401 0;
#X connect 335 0 284 0;
#X connect 336 0 291 0;
#X connect 337 0 292 0;
#X connect 338 0 293 0;
#X connect 339 0 294 0;
#X connect 340 0 296 0;
#X connect 341 0 297 0;
#X connect 342 0 298 0;
#X connect 343 0 333 0;
#X connect 344 0 21 0;
#X connect 345 0 20 0;
#X connect 346 0 19 0;
#X connect 347 0 471 0;
#X connect 401 0 402 0;
#X connect 402 0 403 0;
#X connect 403 0 417 0;
#X connect 405 0 404 0;
#X connect 406 0 334 0;
#X connect 411 0 85 1;
#X connect 412 0 86 1;
#X connect 413 0 89 1;
#X connect 417 0 347 0;
#X connect 420 0 421 0;
#X connect 421 0 419 0;
#X connect 434 0 420 0;
#X connect 435 0 165 1;
#X connect 436 0 191 1;
#X connect 437 0 202 1;
#X connect 438 0 227 1;
#X connect 439 0 45 0;
#X connect 440 0 125 0;
#X connect 441 0 128 0;
#X connect 442 0 131 0;
#X connect 443 0 143 0;
#X connect 446 0 144 0;
#X connect 447 0 148 0;
#X connect 449 0 16 1;
#X connect 449 0 14 1;
#X connect 449 0 12 1;
#X connect 454 0 458 0;
#X connect 454 0 459 0;
#X connect 454 0 460 0;
#X connect 455 0 316 0;
#X connect 456 0 315 0;
#X connect 457 0 314 0;
#X connect 458 0 316 1;
#X connect 459 0 315 1;
#X connect 460 0 314 1;
#X connect 471 0 332 0;
#X connect 475 0 405 0;
#X connect 476 0 330 0;
#X connect 476 1 327 0;
#X coords 0 -1 1 1 674 430 2 146 -730;
#X restore 310 100 pd interface;
