#N canvas 0 0 1266 618 10;
#X obj 326 74 inlet;
#X obj 396 74 inlet;
#X obj 440 800 outlet~;
#X text 316 44 velocity;
#X obj 440 750 *~;
#X obj 342 322 / 127;
#X obj 460 600 vline~;
#X floatatom 500 270 5 0 0 0 - - -, f 5;
#X floatatom 430 270 5 0 0 0 - - -, f 5;
#X floatatom 576 273 5 0 0 0 - - -, f 5;
#X floatatom 640 270 5 0 0 0 - - -, f 5;
#X obj 620 390 +;
#X obj 670 400 +;
#X obj 506 473 pack f f f f f f f f;
#X msg 506 513 1 \$2 \, 0.9 \$3 \$6 \, 0.89 \$4 \$7 \, 0 \$5 \$8;
#X obj 350 380 select 0;
#X floatatom 620 415 5 0 0 0 - - -, f 5;
#X floatatom 670 425 5 0 0 0 - - -, f 5;
#X msg 360 570 0 \$2;
#X obj 360 540 pack;
#X obj 390 170 receive attack;
#X floatatom 390 190 5 0 0 0 - - -, f 5;
#X floatatom 480 190 5 0 0 0 - - -, f 5;
#X floatatom 570 190 5 0 0 0 - - -, f 5;
#X obj 480 170 receive decay;
#X obj 570 170 receive sustain;
#X obj 670 170 receive release;
#X floatatom 670 195 5 0 0 0 - - -, f 5;
#X text 396 44 bang;
#X msg 2270 1510;
#X obj 820 650 spigot~;
#X obj 820 560 tabread envelope;
#X obj 820 540 line;
#X msg 820 490 50 5000;
#X msg 780 490 0;
#X msg 870 540 5;
#X obj 870 520 loadbang;
#X obj 820 625 sig~;
#X obj 860 630 receive envelopeonoff;
#X obj 820 585 abs;
#X obj 620 690 spigot~;
#X obj 460 625 spigot~;
#X obj 530 600 receive envelopeonoff;
#X obj 690 630 tgl 15 0 empty empty empty 17 7 0 10 #fcfcfc #000000
#000000 0 1.5;
#X obj 690 570 bng 15 250 10 0 empty empty empty 17 7 0 10 #fcfcfc
#000000 #000000;
#X connect 0 0 5 0;
#X connect 1 0 21 0;
#X connect 1 0 22 0;
#X connect 1 0 23 0;
#X connect 1 0 27 0;
#X connect 4 0 2 0;
#X connect 5 0 15 0;
#X connect 6 0 41 0;
#X connect 7 0 11 1;
#X connect 7 0 13 2;
#X connect 8 0 11 0;
#X connect 8 0 13 1;
#X connect 8 0 13 5;
#X connect 9 0 12 1;
#X connect 9 0 13 3;
#X connect 10 0 13 4;
#X connect 11 0 12 0;
#X connect 11 0 16 0;
#X connect 12 0 17 0;
#X connect 13 0 14 0;
#X connect 14 0 6 0;
#X connect 15 0 44 0;
#X connect 15 0 19 0;
#X connect 15 1 13 0;
#X connect 15 1 4 0;
#X connect 15 1 34 0;
#X connect 15 1 33 0;
#X connect 15 1 44 0;
#X connect 16 0 13 6;
#X connect 17 0 13 7;
#X connect 18 0 6 0;
#X connect 19 0 18 0;
#X connect 20 0 21 0;
#X connect 21 0 8 0;
#X connect 22 0 7 0;
#X connect 23 0 9 0;
#X connect 24 0 22 0;
#X connect 25 0 23 0;
#X connect 26 0 27 0;
#X connect 27 0 10 0;
#X connect 27 0 19 1;
#X connect 30 1 40 0;
#X connect 31 0 39 0;
#X connect 32 0 31 0;
#X connect 33 0 32 0;
#X connect 34 0 32 0;
#X connect 35 0 32 2;
#X connect 36 0 35 0;
#X connect 37 0 30 0;
#X connect 38 0 30 1;
#X connect 39 0 37 0;
#X connect 40 1 4 1;
#X connect 41 0 4 1;
#X connect 42 0 41 1;
#X connect 43 0 40 1;
#X connect 44 0 43 0;
