#N canvas 408 158 450 303 10;
#X obj 142 42 inlet;
#X obj 143 93 t b b;
#X msg 213 134 1;
#X msg 136 154 0;
#X msg 103 104 100;
#X obj 67 63 loadbang;
#X obj 136 179 outlet;
#X obj 142 67 bng 15 250 50 0 empty empty empty 17 7 0 10 #fcfcfc #000000
#000000;
#X obj 116 133 delay 100, f 11;
#X connect 0 0 7 0;
#X connect 1 0 8 0;
#X connect 1 1 2 0;
#X connect 2 0 6 0;
#X connect 3 0 6 0;
#X connect 4 0 8 1;
#X connect 5 0 4 0;
#X connect 7 0 1 0;
#X connect 8 0 3 0;
