#N canvas -8 -8 1283 634 10;
#X obj 92 70 import mrpeach;
#X obj 24 149 udpreceive 9001;
#X msg 23 103 connect localhost 9001;
#X obj 23 182 unpackOSC;
#X obj 44 314 spigot;
#X obj 267 136 tgl 38 0 empty empty empty 17 7 0 10 #fcfcfc #000000
#000000 1 1;
#X obj 223 137 bng 37 250 50 0 empty empty empty 17 7 0 10 #fcfcfc
#000000 #000000;
#X floatatom 184 293 5 0 0 0 - - -, f 5;
#X floatatom 31 578 5 0 0 0 - - -, f 5;
#X floatatom 132 569 5 0 0 0 - - -, f 5;
#X floatatom 237 569 5 0 0 0 - - -, f 5;
#X text 309 147 Captation continue;
#X text 180 148 Update;
#X obj 237 544 routeOSC /or/z;
#X obj 132 544 routeOSC /or/y;
#X obj 37 546 routeOSC /or/x;
#X obj 237 598 average;
#X floatatom 378 567 5 0 0 0 - - -, f 5;
#X floatatom 237 623 5 0 0 0 - - -, f 5;
#X obj 132 593 average;
#X floatatom 130 631 5 0 0 0 - - -, f 5;
#X obj 31 599 average;
#X floatatom 31 624 5 0 0 0 - - -, f 5;
#X text 365 500 Sensibilité;
#X obj 253 818 vsl 15 128 -180 180 0 0 empty empty empty 0 -9 0 10
#fcfcfc #000000 #000000 6364 1;
#X obj 132 820 vsl 15 128 -180 180 0 0 empty empty empty 0 -9 0 10
#fcfcfc #000000 #000000 6340 1;
#X obj 41 820 vsl 15 128 -180 180 0 0 empty empty empty 0 -9 0 10 #fcfcfc
#000000 #000000 6354 1;
#X text 139 486 ORIENTATION :;
#X obj 42 349 send data;
#X obj 132 512 receive data;
#X text 138 35 TRAITEMENT DU SIGNAL OSC;
#X obj 524 513 receive data;
#X obj 524 537 routeOSC /light;
#X floatatom 524 563 5 0 0 0 - - -, f 5;
#X obj 524 593 average;
#X floatatom 524 618 5 0 0 0 - - -, f 5;
#X obj 524 642 vsl 15 128 0 0.5 0 0 empty empty empty 0 -9 0 10 #fcfcfc
#000000 #000000 1727 1;
#X text 524 480 LIGHT :;
#X text 712 483 ACCELERATION :;
#X obj 2441 2226;
#X obj 715 510 receive data;
#X obj 738 550 routeOSC /accel/x;
#X obj 711 583 routeOSC /accel/y;
#X obj 678 615 routeOSC /accel/z;
#X floatatom 845 570 5 0 0 0 - - -, f 5;
#X floatatom 820 602 5 0 0 0 - - -, f 5;
#X floatatom 789 636 5 0 0 0 - - -, f 5;
#X obj 827 657 average;
#X obj 897 631 average;
#X obj 948 608 average;
#X obj 378 615 send sensi;
#X obj 947 579 receive sensi;
#X floatatom 949 633 5 0 0 0 - - -, f 5;
#X floatatom 889 658 5 0 0 0 - - -, f 5;
#X floatatom 829 685 5 0 0 0 - - -, f 5;
#X obj 1001 634 hsl 128 15 -1 1 0 0 empty empty empty -2 -8 0 10 #fcfcfc
#000000 #000000 6335 1;
#X obj 1000 659 hsl 128 15 -1 1 0 0 empty empty empty -2 -8 0 10 #fcfcfc
#000000 #000000 6217 1;
#X obj 1000 685 hsl 128 15 -1 1 0 0 empty empty empty -2 -8 0 10 #fcfcfc
#000000 #000000 12700 1;
#X text 1046 52 LINEAR ACCELERATION;
#X obj 1038 92 receive data;
#X obj 956 136 routeOSC /laccel/x;
#X obj 1081 135 routeOSC /laccel/y;
#X obj 1199 134 routeOSC /laccel/z;
#X floatatom 956 161 5 0 0 0 - - -, f 5;
#X floatatom 1081 160 5 0 0 0 - - -, f 5;
#X floatatom 1199 159 5 0 0 0 - - -, f 5;
#X obj 642 160 receive sensi;
#X obj 956 234 vsl 15 128 -2 2 0 0 empty empty empty 0 -9 0 10 #fcfcfc
#000000 #000000 6351 1;
#X obj 1081 233 vsl 15 128 -2 2 0 0 empty empty empty 0 -9 0 10 #fcfcfc
#000000 #000000 6350 1;
#X obj 1199 232 vsl 15 128 -2 2 0 0 empty empty empty 0 -9 0 10 #fcfcfc
#000000 #000000 6348 1;
#X text 610 63 MICROPHONE;
#X obj 612 97 receive data;
#X obj 602 263 vsl 15 128 0 1 0 0 empty empty empty 0 -9 0 10 #fcfcfc
#000000 #000000 0 1;
#X obj 603 123 routeOSC /audio/spl;
#X obj 603 183 average;
#X floatatom 603 208 5 0 0 0 - - -, f 5;
#X floatatom 603 148 5 0 0 0 - - -, f 5;
#X obj 160 1134 / 360;
#X obj 158 1215 osc~;
#X obj 168 1568 dac~;
#X floatatom 160 1188 5 0 0 0 - - -, f 5;
#X obj 353 1051 tgl 56 0 empty empty empty 17 7 0 10 #fcfcfc #000000
#000000 0 1;
#X floatatom 354 1136 5 0 0 0 - - -, f 5;
#X obj 163 1267 *~;
#X obj 62 1141 / 360;
#X obj 62 1165 * 1000;
#X floatatom 62 1190 5 0 0 0 - - -, f 5;
#X obj 62 1214 osc~;
#X obj 760 847 bng 77 250 50 0 empty empty empty 17 7 0 10 #fcfcfc
#000000 #000000;
#X text 347 1025 audio on/off;
#X obj 220 972 send orz;
#X obj 659 989 spigot;
#X floatatom 614 1056 5 0 0 0 - - -, f 5;
#X floatatom 688 1055 5 0 0 0 - - -, f 5;
#X obj 760 932 b_to_f;
#X floatatom 760 957 5 0 0 0 - - -, f 5;
#X obj 662 1028 unpack f f f;
#X floatatom 757 1055 5 0 0 0 - - -, f 5;
#X obj 378 521 loadbang;
#X obj 599 957 pack f f f;
#X obj 672 913 receive orz;
#X obj 594 913 receive ory;
#X obj 504 916 receive orx;
#X obj 30 984 send orx;
#X obj 160 1159 * 1000;
#X obj 111 989 send ory;
#X floatatom 248 683 5 0 0 0 - - -, f 5;
#X obj 63 1105 receive orx;
#X obj 160 1106 receive ory;
#X obj 576 1206 send calorx;
#X obj 676 1213 send calory;
#X obj 774 1210 send calorz;
#X obj 17 726 -;
#X obj 126 746 -;
#X obj 31 677 receive calorx;
#X obj 152 692 receive calory;
#X floatatom 126 771 5 0 0 0 - - -, f 5;
#X floatatom 17 751 5 0 0 0 - - -, f 5;
#X obj 262 726 -;
#X obj 292 671 receive calorz;
#X floatatom 243 780 5 0 0 0 - - -, f 5;
#X msg 766 1002 0;
#X obj 614 1080 moses 0;
#X obj 688 1079 moses 0;
#X obj 757 1079 moses 0;
#X obj 614 1108 * -1;
#X obj 696 1114 * -1;
#X obj 782 1120 * -1;
#X floatatom 292 696 5 0 0 0 - - -, f 5;
#X floatatom 152 717 5 0 0 0 - - -, f 5;
#X floatatom 31 702 5 0 0 0 - - -, f 5;
#X obj 1142 1001 readsf~;
#X msg 1085 972 start;
#X obj 1128 890 loadbang;
#X msg 1136 928 open kick.wav;
#X obj 166 1388 /~ 3;
#X obj 698 848 loadbang;
#X obj 1199 399 send accelz;
#X text 1093 820 SAMPLE TRIGGERRING FROM ACCELERATION :;
#X obj 1027 891 receive accelz;
#X obj 18 68 loadbang;
#X obj 183 190 b_to_f;
#X obj 1433 1003 readsf~;
#X obj 1419 892 loadbang;
#X msg 1427 930 open snare.wav;
#X msg 1360 978 start;
#X obj 1350 947 bng 15 250 50 0 empty empty empty 17 7 0 10 #fcfcfc
#000000 #000000;
#X obj 1433 1028 send~ snare;
#X obj 1142 1026 send~ kick;
#X obj 347 1389 receive~ kick;
#X obj 470 1388 receive~ snare;
#X obj 332 1561 *~ 1;
#X obj 163 1292 *~;
#X obj 232 1240 vsl 15 128 0 1 0 0 empty empty empty 0 -9 0 10 #fcfcfc
#000000 #000000 1270 1;
#X obj 349 1474 *~;
#X obj 469 1477 *~;
#X obj 442 1361 vsl 15 128 0 1 0 0 empty empty empty 0 -9 0 10 #fcfcfc
#000000 #000000 12700 1;
#X obj 572 1358 vsl 15 128 0 0.5 0 0 empty empty empty 0 -9 0 10 #fcfcfc
#000000 #000000 1270 1;
#X obj 1156 1222 readsf~;
#X msg 1099 1193 start;
#X obj 1142 1111 loadbang;
#X obj 1089 1162 bng 15 250 50 0 empty empty empty 17 7 0 10 #fcfcfc
#000000 #000000;
#X obj 1081 374 send accely;
#X obj 956 375 send accelx;
#X obj 1012 1090 receive accely;
#X obj 1302 897 receive accelx;
#X obj 1156 1247 send~ openh;
#X obj 616 1477 *~;
#X obj 719 1358 vsl 15 128 0 0.5 0 0 empty empty empty 0 -9 0 10 #fcfcfc
#000000 #000000 5080 1;
#X obj 617 1388 receive~ openh;
#X text 708 808 calibration (orientation) :;
#X msg 1150 1149 open shaker.wav;
#X obj 559 1264 loadbang;
#X msg 441 1334 1;
#X msg 715 1315 0.2;
#X msg 290 1224 0.1;
#X msg 564 1328 0.05;
#X obj 1027 916 moses 2;
#X obj 1305 924 moses 2;
#X obj 1075 1126 moses 2;
#X obj 1061 942 bng 15 250 50 0 empty empty empty 17 7 0 10 #fcfcfc
#000000 #000000;
#X obj 246 657 * 2;
#X msg 378 545 10;
#X floatatom 605 1176 5 0 0 0 - - -, f 5;
#X floatatom 692 1182 5 0 0 0 - - -, f 5;
#X floatatom 784 1175 5 0 0 0 - - -, f 5;
#X connect 1 0 3 0;
#X connect 3 0 4 0;
#X connect 4 0 28 0;
#X connect 5 0 7 0;
#X connect 6 0 141 0;
#X connect 7 0 4 1;
#X connect 8 0 21 0;
#X connect 9 0 19 0;
#X connect 10 0 16 0;
#X connect 13 0 10 0;
#X connect 14 0 9 0;
#X connect 15 0 8 0;
#X connect 16 0 18 0;
#X connect 17 0 16 1;
#X connect 17 0 19 1;
#X connect 17 0 21 1;
#X connect 17 0 34 1;
#X connect 17 0 50 0;
#X connect 18 0 181 0;
#X connect 19 0 20 0;
#X connect 20 0 113 0;
#X connect 20 0 105 0;
#X connect 21 0 22 0;
#X connect 22 0 112 0;
#X connect 22 0 103 0;
#X connect 29 0 15 0;
#X connect 29 0 14 0;
#X connect 29 0 13 0;
#X connect 31 0 32 0;
#X connect 32 0 33 0;
#X connect 33 0 34 0;
#X connect 34 0 35 0;
#X connect 35 0 36 0;
#X connect 40 0 41 0;
#X connect 40 0 42 0;
#X connect 40 0 43 0;
#X connect 41 0 44 0;
#X connect 42 0 45 0;
#X connect 43 0 46 0;
#X connect 44 0 49 0;
#X connect 45 0 48 0;
#X connect 46 0 47 0;
#X connect 47 0 54 0;
#X connect 48 0 53 0;
#X connect 49 0 52 0;
#X connect 51 0 49 1;
#X connect 51 0 48 1;
#X connect 51 0 47 1;
#X connect 52 0 55 0;
#X connect 53 0 56 0;
#X connect 54 0 57 0;
#X connect 59 0 60 0;
#X connect 59 0 61 0;
#X connect 59 0 62 0;
#X connect 60 0 63 0;
#X connect 61 0 64 0;
#X connect 62 0 65 0;
#X connect 63 0 67 0;
#X connect 64 0 68 0;
#X connect 65 0 69 0;
#X connect 66 0 74 1;
#X connect 67 0 163 0;
#X connect 68 0 162 0;
#X connect 69 0 137 0;
#X connect 71 0 73 0;
#X connect 73 0 76 0;
#X connect 74 0 75 0;
#X connect 75 0 72 0;
#X connect 76 0 74 0;
#X connect 77 0 104 0;
#X connect 78 0 83 0;
#X connect 80 0 78 0;
#X connect 81 0 82 0;
#X connect 82 0 83 1;
#X connect 83 0 152 0;
#X connect 84 0 85 0;
#X connect 85 0 86 0;
#X connect 86 0 87 0;
#X connect 87 0 83 0;
#X connect 88 0 94 0;
#X connect 88 0 121 0;
#X connect 91 0 96 0;
#X connect 92 0 122 0;
#X connect 93 0 123 0;
#X connect 94 0 95 0;
#X connect 95 0 91 1;
#X connect 96 0 92 0;
#X connect 96 1 93 0;
#X connect 96 2 97 0;
#X connect 97 0 124 0;
#X connect 98 0 182 0;
#X connect 99 0 91 0;
#X connect 100 0 99 2;
#X connect 101 0 99 1;
#X connect 102 0 99 0;
#X connect 104 0 80 0;
#X connect 106 0 118 0;
#X connect 106 0 90 0;
#X connect 107 0 84 0;
#X connect 108 0 77 0;
#X connect 112 0 117 0;
#X connect 113 0 116 0;
#X connect 114 0 130 0;
#X connect 115 0 129 0;
#X connect 116 0 25 0;
#X connect 117 0 26 0;
#X connect 118 0 120 0;
#X connect 119 0 128 0;
#X connect 120 0 24 0;
#X connect 121 0 97 0;
#X connect 121 0 93 0;
#X connect 121 0 92 0;
#X connect 122 0 125 0;
#X connect 122 1 183 0;
#X connect 123 0 184 0;
#X connect 123 1 126 0;
#X connect 124 0 185 0;
#X connect 124 1 127 0;
#X connect 125 0 183 0;
#X connect 126 0 184 0;
#X connect 127 0 185 0;
#X connect 128 0 118 1;
#X connect 129 0 113 1;
#X connect 130 0 112 1;
#X connect 131 0 148 0;
#X connect 131 1 134 0;
#X connect 132 0 131 0;
#X connect 133 0 134 0;
#X connect 134 0 131 0;
#X connect 135 0 79 0;
#X connect 135 0 79 1;
#X connect 136 0 88 0;
#X connect 139 0 177 0;
#X connect 140 0 2 0;
#X connect 141 0 7 0;
#X connect 142 0 147 0;
#X connect 142 1 144 0;
#X connect 143 0 144 0;
#X connect 144 0 142 0;
#X connect 145 0 142 0;
#X connect 146 0 145 0;
#X connect 149 0 154 0;
#X connect 150 0 155 0;
#X connect 151 0 79 0;
#X connect 151 0 79 1;
#X connect 152 0 135 0;
#X connect 153 0 152 1;
#X connect 154 0 151 0;
#X connect 155 0 151 0;
#X connect 156 0 154 1;
#X connect 157 0 155 1;
#X connect 158 0 166 0;
#X connect 158 1 171 0;
#X connect 159 0 158 0;
#X connect 160 0 171 0;
#X connect 161 0 159 0;
#X connect 164 0 179 0;
#X connect 165 0 178 0;
#X connect 167 0 151 0;
#X connect 168 0 167 1;
#X connect 169 0 167 0;
#X connect 171 0 158 0;
#X connect 172 0 173 0;
#X connect 172 0 176 0;
#X connect 172 0 174 0;
#X connect 172 0 175 0;
#X connect 173 0 156 0;
#X connect 174 0 168 0;
#X connect 175 0 153 0;
#X connect 176 0 157 0;
#X connect 177 1 180 0;
#X connect 178 1 146 0;
#X connect 179 1 161 0;
#X connect 180 0 132 0;
#X connect 181 0 106 0;
#X connect 182 0 17 0;
#X connect 183 0 109 0;
#X connect 184 0 110 0;
#X connect 185 0 111 0;
